<svg width="467" height="1383" viewBox="0 0 467 1383" fill="none" xmlns="http://www.w3.org/2000/svg">
<path fill-rule="evenodd" clip-rule="evenodd" d="M181.384 472.674C200.092 472.674 353.673 472.824 370.468 470.792C418.938 464.929 458.92 424.998 465.289 376.781C468.595 351.753 466.092 309.263 466.092 282.402C466.092 249.073 467.886 11.4196 465.431 0.290629L4.52307 0.290649L4.4762 104.112L361.956 103.708C361.853 136.339 364.946 352.655 360.686 364.8C351.822 367.472 301.055 365.98 287.205 365.961L287.205 181.998L181.739 181.976L181.384 472.669L181.384 472.674Z" fill="#B9211C"/>
<path fill-rule="evenodd" clip-rule="evenodd" d="M465.767 1382.75L466.08 1277.69L119.49 1277.77C109.798 1277.84 111.223 1277.73 109.215 1275.63C102.079 1268.18 111.193 1040.06 106.824 1015.24L2.81705 1015.1C1.47814 1026.1 2.48577 1205.87 2.48577 1221.87C2.48577 1253.48 -1.07771 1290.17 11.3859 1316.71C22.5713 1340.53 39.8418 1358.82 62.0347 1370.54C90.9343 1385.81 117.534 1382.75 152.616 1382.75L465.767 1382.75Z" fill="#B9211C"/>
<path fill-rule="evenodd" clip-rule="evenodd" d="M282.238 921.927L287.209 921.684L287.199 556.491L182.039 556.233L181.664 695.98L181.383 921.927L282.237 921.927L282.238 921.927Z" fill="#B9211C"/>
<path fill-rule="evenodd" clip-rule="evenodd" d="M110.293 921.905C105.624 918.028 107.644 887.101 107.644 879.647L107.644 648.414C107.644 620.785 109.848 582.587 107.319 556.24L3.22909 556.267C1.5419 570.188 2.31831 796.64 2.31831 830.757C2.31831 846.559 5.54592 913.889 -1.52608e-05 921.858L110.293 921.905Z" fill="#B9211C"/>
<path fill-rule="evenodd" clip-rule="evenodd" d="M466.091 921.927L465.766 556.243L361.676 556.238C360.175 568.698 361.269 844.789 361.269 879.645C361.269 890.834 363.824 915.012 358.452 921.861L364.245 921.927L466.091 921.927L466.091 921.927Z" fill="#B9211C"/>
</svg>
